<svg width="312" height="80" viewBox="0 0 312 80" fill="none" xmlns="http://www.w3.org/2000/svg">
<g filter="url(#filter0_d_1_52)">
<path d="M78.5 61C78.5 60.4477 78.9477 60 79.5 60H167.5H255.5C256.052 60 256.5 60.4477 256.5 61V63C256.5 63.5523 256.052 64 255.5 64H79.5C78.9477 64 78.5 63.5523 78.5 63V61Z" fill="#000AFF"/>
</g>
<g filter="url(#filter1_d_1_52)">
<path d="M86.7727 36H78.5227V12.7273H86.8409C89.1818 12.7273 91.197 13.1932 92.8864 14.125C94.5758 15.0492 95.875 16.3788 96.7841 18.1136C97.7008 19.8485 98.1591 21.9242 98.1591 24.3409C98.1591 26.7652 97.7008 28.8485 96.7841 30.5909C95.875 32.3333 94.5682 33.6705 92.8636 34.6023C91.1667 35.5341 89.1364 36 86.7727 36ZM83.4432 31.7841H86.5682C88.0227 31.7841 89.2462 31.5265 90.2386 31.0114C91.2386 30.4886 91.9886 29.6818 92.4886 28.5909C92.9962 27.4924 93.25 26.0758 93.25 24.3409C93.25 22.6212 92.9962 21.2159 92.4886 20.125C91.9886 19.0341 91.2424 18.2311 90.25 17.7159C89.2576 17.2008 88.0341 16.9432 86.5795 16.9432H83.4432V31.7841ZM109.668 36.3409C107.872 36.3409 106.327 35.9773 105.031 35.25C103.743 34.5152 102.751 33.4773 102.054 32.1364C101.357 30.7879 101.009 29.1932 101.009 27.3523C101.009 25.5568 101.357 23.9811 102.054 22.625C102.751 21.2689 103.732 20.2121 104.997 19.4545C106.27 18.697 107.762 18.3182 109.474 18.3182C110.626 18.3182 111.698 18.5038 112.69 18.875C113.69 19.2386 114.562 19.7879 115.304 20.5227C116.054 21.2576 116.637 22.1818 117.054 23.2955C117.471 24.4015 117.679 25.697 117.679 27.1818V28.5114H102.94V25.5114H113.122C113.122 24.8144 112.971 24.197 112.668 23.6591C112.365 23.1212 111.944 22.7008 111.406 22.3977C110.876 22.0871 110.259 21.9318 109.554 21.9318C108.819 21.9318 108.168 22.1023 107.599 22.4432C107.039 22.7765 106.599 23.2273 106.281 23.7955C105.963 24.3561 105.8 24.9811 105.793 25.6705V28.5227C105.793 29.3864 105.952 30.1326 106.27 30.7614C106.596 31.3902 107.054 31.875 107.645 32.2159C108.236 32.5568 108.937 32.7273 109.747 32.7273C110.285 32.7273 110.777 32.6515 111.224 32.5C111.671 32.3485 112.054 32.1212 112.372 31.8182C112.69 31.5152 112.933 31.1439 113.099 30.7045L117.577 31C117.349 32.0758 116.884 33.0152 116.179 33.8182C115.482 34.6136 114.58 35.2348 113.474 35.6818C112.376 36.1212 111.107 36.3409 109.668 36.3409ZM128.724 36.3409C126.937 36.3409 125.399 35.9621 124.111 35.2045C122.83 34.4394 121.846 33.3788 121.156 32.0227C120.474 30.6667 120.134 29.1061 120.134 27.3409C120.134 25.553 120.478 23.9848 121.168 22.6364C121.865 21.2803 122.853 20.2235 124.134 19.4659C125.414 18.7008 126.937 18.3182 128.702 18.3182C130.224 18.3182 131.558 18.5947 132.702 19.1477C133.846 19.7008 134.751 20.4773 135.418 21.4773C136.084 22.4773 136.452 23.6515 136.52 25H131.952C131.823 24.1288 131.482 23.428 130.929 22.8977C130.384 22.3598 129.668 22.0909 128.781 22.0909C128.031 22.0909 127.376 22.2955 126.815 22.7045C126.262 23.1061 125.83 23.6932 125.52 24.4659C125.209 25.2386 125.054 26.1742 125.054 27.2727C125.054 28.3864 125.205 29.3333 125.509 30.1136C125.819 30.8939 126.255 31.4886 126.815 31.8977C127.376 32.3068 128.031 32.5114 128.781 32.5114C129.334 32.5114 129.83 32.3977 130.27 32.1705C130.717 31.9432 131.084 31.6136 131.372 31.1818C131.668 30.7424 131.861 30.2159 131.952 29.6023H136.52C136.444 30.9356 136.08 32.1098 135.429 33.125C134.785 34.1326 133.895 34.9205 132.759 35.4886C131.622 36.0568 130.277 36.3409 128.724 36.3409ZM147.574 36.3409C145.778 36.3409 144.233 35.9773 142.938 35.25C141.65 34.5152 140.657 33.4773 139.96 32.1364C139.263 30.7879 138.915 29.1932 138.915 27.3523C138.915 25.5568 139.263 23.9811 139.96 22.625C140.657 21.2689 141.638 20.2121 142.903 19.4545C144.176 18.697 145.669 18.3182 147.381 18.3182C148.532 18.3182 149.604 18.5038 150.597 18.875C151.597 19.2386 152.468 19.7879 153.21 20.5227C153.96 21.2576 154.544 22.1818 154.96 23.2955C155.377 24.4015 155.585 25.697 155.585 27.1818V28.5114H140.847V25.5114H151.028C151.028 24.8144 150.877 24.197 150.574 23.6591C150.271 23.1212 149.85 22.7008 149.312 22.3977C148.782 22.0871 148.165 21.9318 147.46 21.9318C146.725 21.9318 146.074 22.1023 145.506 22.4432C144.945 22.7765 144.506 23.2273 144.188 23.7955C143.869 24.3561 143.706 24.9811 143.699 25.6705V28.5227C143.699 29.3864 143.858 30.1326 144.176 30.7614C144.502 31.3902 144.96 31.875 145.551 32.2159C146.142 32.5568 146.843 32.7273 147.653 32.7273C148.191 32.7273 148.684 32.6515 149.131 32.5C149.578 32.3485 149.96 32.1212 150.278 31.8182C150.597 31.5152 150.839 31.1439 151.006 30.7045L155.483 31C155.256 32.0758 154.79 33.0152 154.085 33.8182C153.388 34.6136 152.487 35.2348 151.381 35.6818C150.282 36.1212 149.013 36.3409 147.574 36.3409ZM163.585 25.9091V36H158.744V18.5455H163.358V21.625H163.562C163.949 20.6098 164.597 19.8068 165.506 19.2159C166.415 18.6174 167.517 18.3182 168.812 18.3182C170.025 18.3182 171.081 18.5833 171.983 19.1136C172.884 19.6439 173.585 20.4015 174.085 21.3864C174.585 22.3636 174.835 23.5303 174.835 24.8864V36H169.994V25.75C170.002 24.6818 169.729 23.8485 169.176 23.25C168.623 22.6439 167.862 22.3409 166.892 22.3409C166.241 22.3409 165.665 22.4811 165.165 22.7614C164.672 23.0417 164.286 23.4508 164.006 23.9886C163.733 24.5189 163.593 25.1591 163.585 25.9091ZM187.935 18.5455V22.1818H177.423V18.5455H187.935ZM179.81 14.3636H184.651V30.6364C184.651 31.0833 184.719 31.4318 184.855 31.6818C184.991 31.9242 185.181 32.0947 185.423 32.1932C185.673 32.2917 185.961 32.3409 186.287 32.3409C186.514 32.3409 186.741 32.322 186.969 32.2841C187.196 32.2386 187.37 32.2045 187.491 32.1818L188.253 35.7841C188.01 35.8598 187.67 35.947 187.23 36.0455C186.791 36.1515 186.257 36.2159 185.628 36.2386C184.461 36.2841 183.438 36.1288 182.56 35.7727C181.688 35.4167 181.01 34.8636 180.526 34.1136C180.041 33.3636 179.802 32.4167 179.81 31.2727V14.3636ZM191.088 36V18.5455H195.781V21.5909H195.963C196.281 20.5076 196.815 19.6894 197.565 19.1364C198.315 18.5758 199.179 18.2955 200.156 18.2955C200.399 18.2955 200.66 18.3106 200.94 18.3409C201.221 18.3712 201.467 18.4129 201.679 18.4659V22.7614C201.452 22.6932 201.137 22.6326 200.736 22.5795C200.334 22.5265 199.967 22.5 199.634 22.5C198.921 22.5 198.285 22.6553 197.724 22.9659C197.171 23.2689 196.732 23.6932 196.406 24.2386C196.088 24.7841 195.929 25.4129 195.929 26.125V36H191.088ZM208.659 36.3295C207.545 36.3295 206.553 36.1364 205.682 35.75C204.811 35.3561 204.121 34.7765 203.614 34.0114C203.114 33.2386 202.864 32.2765 202.864 31.125C202.864 30.1553 203.042 29.3409 203.398 28.6818C203.754 28.0227 204.239 27.4924 204.852 27.0909C205.466 26.6894 206.163 26.3864 206.943 26.1818C207.731 25.9773 208.557 25.8333 209.42 25.75C210.436 25.6439 211.254 25.5455 211.875 25.4545C212.496 25.3561 212.947 25.2121 213.227 25.0227C213.508 24.8333 213.648 24.553 213.648 24.1818V24.1136C213.648 23.3939 213.42 22.8371 212.966 22.4432C212.519 22.0492 211.883 21.8523 211.057 21.8523C210.186 21.8523 209.492 22.0455 208.977 22.4318C208.462 22.8106 208.121 23.2879 207.955 23.8636L203.477 23.5C203.705 22.4394 204.152 21.5227 204.818 20.75C205.485 19.9697 206.345 19.3712 207.398 18.9545C208.458 18.5303 209.686 18.3182 211.08 18.3182C212.049 18.3182 212.977 18.4318 213.864 18.6591C214.758 18.8864 215.549 19.2386 216.239 19.7159C216.936 20.1932 217.485 20.8068 217.886 21.5568C218.288 22.2992 218.489 23.1894 218.489 24.2273V36H213.898V33.5795H213.761C213.481 34.125 213.106 34.6061 212.636 35.0227C212.167 35.4318 211.602 35.7538 210.943 35.9886C210.284 36.2159 209.523 36.3295 208.659 36.3295ZM210.045 32.9886C210.758 32.9886 211.386 32.8485 211.932 32.5682C212.477 32.2803 212.905 31.8939 213.216 31.4091C213.527 30.9242 213.682 30.375 213.682 29.7614V27.9091C213.53 28.0076 213.322 28.0985 213.057 28.1818C212.799 28.2576 212.508 28.3295 212.182 28.3977C211.856 28.4583 211.53 28.5152 211.205 28.5682C210.879 28.6136 210.583 28.6553 210.318 28.6932C209.75 28.7765 209.254 28.9091 208.83 29.0909C208.405 29.2727 208.076 29.5189 207.841 29.8295C207.606 30.1326 207.489 30.5114 207.489 30.9659C207.489 31.625 207.727 32.1288 208.205 32.4773C208.689 32.8182 209.303 32.9886 210.045 32.9886ZM227.085 12.7273V36H222.244V12.7273H227.085ZM230.963 36V18.5455H235.804V36H230.963ZM233.395 16.2955C232.675 16.2955 232.058 16.0568 231.543 15.5795C231.035 15.0947 230.781 14.5152 230.781 13.8409C230.781 13.1742 231.035 12.6023 231.543 12.125C232.058 11.6402 232.675 11.3977 233.395 11.3977C234.115 11.3977 234.728 11.6402 235.236 12.125C235.751 12.6023 236.009 13.1742 236.009 13.8409C236.009 14.5152 235.751 15.0947 235.236 15.5795C234.728 16.0568 234.115 16.2955 233.395 16.2955ZM239.591 36V33.1136L248.136 22.5341V22.4091H239.886V18.5455H253.966V21.6932L245.943 32.0114V32.1364H254.261V36H239.591ZM265.418 36.3409C263.622 36.3409 262.077 35.9773 260.781 35.25C259.493 34.5152 258.501 33.4773 257.804 32.1364C257.107 30.7879 256.759 29.1932 256.759 27.3523C256.759 25.5568 257.107 23.9811 257.804 22.625C258.501 21.2689 259.482 20.2121 260.747 19.4545C262.02 18.697 263.512 18.3182 265.224 18.3182C266.376 18.3182 267.448 18.5038 268.44 18.875C269.44 19.2386 270.312 19.7879 271.054 20.5227C271.804 21.2576 272.387 22.1818 272.804 23.2955C273.221 24.4015 273.429 25.697 273.429 27.1818V28.5114H258.69V25.5114H268.872C268.872 24.8144 268.721 24.197 268.418 23.6591C268.115 23.1212 267.694 22.7008 267.156 22.3977C266.626 22.0871 266.009 21.9318 265.304 21.9318C264.569 21.9318 263.918 22.1023 263.349 22.4432C262.789 22.7765 262.349 23.2273 262.031 23.7955C261.713 24.3561 261.55 24.9811 261.543 25.6705V28.5227C261.543 29.3864 261.702 30.1326 262.02 30.7614C262.346 31.3902 262.804 31.875 263.395 32.2159C263.986 32.5568 264.687 32.7273 265.497 32.7273C266.035 32.7273 266.527 32.6515 266.974 32.5C267.421 32.3485 267.804 32.1212 268.122 31.8182C268.44 31.5152 268.683 31.1439 268.849 30.7045L273.327 31C273.099 32.0758 272.634 33.0152 271.929 33.8182C271.232 34.6136 270.33 35.2348 269.224 35.6818C268.126 36.1212 266.857 36.3409 265.418 36.3409ZM283.02 36.2841C281.694 36.2841 280.493 35.9432 279.418 35.2614C278.349 34.572 277.501 33.5606 276.872 32.2273C276.251 30.8864 275.94 29.2424 275.94 27.2955C275.94 25.2955 276.262 23.6326 276.906 22.3068C277.55 20.9735 278.406 19.9773 279.474 19.3182C280.55 18.6515 281.728 18.3182 283.009 18.3182C283.986 18.3182 284.8 18.4848 285.452 18.8182C286.111 19.1439 286.641 19.553 287.043 20.0455C287.452 20.5303 287.762 21.0076 287.974 21.4773H288.122V12.7273H292.952V36H288.179V33.2045H287.974C287.747 33.6894 287.425 34.1705 287.009 34.6477C286.599 35.1174 286.065 35.5076 285.406 35.8182C284.755 36.1288 283.959 36.2841 283.02 36.2841ZM284.554 32.4318C285.334 32.4318 285.993 32.2197 286.531 31.7955C287.077 31.3636 287.493 30.7614 287.781 29.9886C288.077 29.2159 288.224 28.3106 288.224 27.2727C288.224 26.2348 288.08 25.3333 287.793 24.5682C287.505 23.803 287.088 23.2121 286.543 22.7955C285.997 22.3788 285.334 22.1705 284.554 22.1705C283.759 22.1705 283.088 22.3864 282.543 22.8182C281.997 23.25 281.584 23.8485 281.304 24.6136C281.024 25.3788 280.884 26.2652 280.884 27.2727C280.884 28.2879 281.024 29.1856 281.304 29.9659C281.592 30.7386 282.005 31.3447 282.543 31.7841C283.088 32.2159 283.759 32.4318 284.554 32.4318ZM270.899 49.3416V70H267.782V49.3416H270.899ZM283.034 63.3022H286.101L288.259 66.1165L289.278 67.3673L292.718 71.856H289.53L287.23 68.8602L286.444 67.7707L283.034 63.3022ZM293.384 59.6708C293.384 61.8765 292.98 63.7729 292.173 65.3599C291.366 66.9402 290.26 68.1574 288.854 69.0115C287.456 69.8588 285.865 70.2824 284.083 70.2824C282.294 70.2824 280.697 69.8588 279.292 69.0115C277.893 68.1574 276.79 66.9369 275.983 65.3498C275.176 63.7628 274.773 61.8698 274.773 59.6708C274.773 57.4651 275.176 55.5721 275.983 53.9918C276.79 52.4047 277.893 51.1875 279.292 50.3402C280.697 49.4862 282.294 49.0592 284.083 49.0592C285.865 49.0592 287.456 49.4862 288.854 50.3402C290.26 51.1875 291.366 52.4047 292.173 53.9918C292.98 55.5721 293.384 57.4651 293.384 59.6708ZM290.297 59.6708C290.297 57.9896 290.025 56.5741 289.48 55.4241C288.942 54.2675 288.202 53.3933 287.261 52.8015C286.326 52.203 285.267 51.9037 284.083 51.9037C282.893 51.9037 281.83 52.203 280.896 52.8015C279.961 53.3933 279.221 54.2675 278.677 55.4241C278.139 56.5741 277.87 57.9896 277.87 59.6708C277.87 61.352 278.139 62.7709 278.677 63.9276C279.221 65.0775 279.961 65.9517 280.896 66.5502C281.83 67.142 282.893 67.4379 284.083 67.4379C285.267 67.4379 286.326 67.142 287.261 66.5502C288.202 65.9517 288.942 65.0775 289.48 63.9276C290.025 62.7709 290.297 61.352 290.297 59.6708Z" fill="#000AFF"/>
</g>
<path d="M43.9379 17.2686C44.4304 16.4795 45.2948 16 46.225 16V16C48.3234 16 49.6174 18.2918 48.5334 20.0886L37.2242 38.834C37.0898 39.0568 36.9775 39.2921 36.8888 39.5367L36.2689 41.2461C35.9384 42.1575 35.9502 43.158 36.3021 44.0614L36.8319 45.4218C36.9582 45.746 37.1263 46.0524 37.3318 46.3332L48.0414 60.9594C49.27 62.6374 48.0717 65 45.992 65V65C45.1968 65 44.4474 64.6275 43.9673 63.9936L30.2704 45.9102L29.7546 45.3976C28.2203 43.8727 28.1762 41.4044 29.6551 39.8258L30.0031 39.4542C30.1809 39.2645 30.3397 39.0579 30.4774 38.8373L43.9379 17.2686Z" fill="#951D1D"/>
<path d="M54.9642 17.2554C55.4395 16.4757 56.2867 16 57.1999 16V16C59.2143 16 60.4742 18.1796 59.4688 19.9252L49.2387 37.6876C49.0057 38.092 48.8086 38.516 48.6495 38.9547L48.5611 39.1984C47.9562 40.8667 47.9777 42.6979 48.6218 44.3515V44.3515C48.7992 44.8071 49.0219 45.2438 49.2864 45.655L59.2108 61.0842C60.2986 62.7753 59.0844 65 57.0736 65V65C56.2328 65 55.4463 64.5841 54.9731 63.889L42.3696 45.3784C42.2148 45.1511 42.0386 44.939 41.8436 44.7452V44.7452C40.1853 43.0971 40.1377 40.4294 41.736 38.7232L41.8232 38.6302C42.0317 38.4076 42.2169 38.1641 42.3757 37.9036L54.9642 17.2554Z" fill="#000AFF"/>
<g filter="url(#filter2_d_1_52)">
<path d="M58.7901 44.5C59.6894 44.5 60.5292 44.9495 61.028 45.6977L70.7478 60.2774C71.8626 61.9496 70.7738 64.2047 68.7709 64.3716V64.3716C67.8191 64.4509 66.8986 64.0097 66.3642 63.218L56.5608 48.6945C55.355 46.9081 56.6349 44.5 58.7901 44.5V44.5Z" fill="#000587"/>
</g>
<g filter="url(#filter3_d_1_52)">
<path d="M59.271 37.6718C56.808 37.9284 55.1249 35.2431 56.4294 33.1382L66.2397 17.3092C66.67 16.615 67.3974 16.1591 68.2098 16.0744V16.0744C70.3473 15.8518 71.8407 18.1404 70.7761 20.0073L61.5508 36.1842C61.075 37.0185 60.2263 37.5723 59.271 37.6718V37.6718Z" fill="#000587"/>
</g>
<defs>
<filter id="filter0_d_1_52" x="74.5" y="60" width="186" height="12" filterUnits="userSpaceOnUse" color-interpolation-filters="sRGB">
<feFlood flood-opacity="0" result="BackgroundImageFix"/>
<feColorMatrix in="SourceAlpha" type="matrix" values="0 0 0 0 0 0 0 0 0 0 0 0 0 0 0 0 0 0 127 0" result="hardAlpha"/>
<feOffset dy="4"/>
<feGaussianBlur stdDeviation="2"/>
<feComposite in2="hardAlpha" operator="out"/>
<feColorMatrix type="matrix" values="0 0 0 0 0 0 0 0 0 0 0 0 0 0 0 0 0 0 0.25 0"/>
<feBlend mode="normal" in2="BackgroundImageFix" result="effect1_dropShadow_1_52"/>
<feBlend mode="normal" in="SourceGraphic" in2="effect1_dropShadow_1_52" result="shape"/>
</filter>
<filter id="filter1_d_1_52" x="74.5227" y="11.3977" width="222.861" height="68.4583" filterUnits="userSpaceOnUse" color-interpolation-filters="sRGB">
<feFlood flood-opacity="0" result="BackgroundImageFix"/>
<feColorMatrix in="SourceAlpha" type="matrix" values="0 0 0 0 0 0 0 0 0 0 0 0 0 0 0 0 0 0 127 0" result="hardAlpha"/>
<feOffset dy="4"/>
<feGaussianBlur stdDeviation="2"/>
<feComposite in2="hardAlpha" operator="out"/>
<feColorMatrix type="matrix" values="0 0 0 0 0 0 0 0 0 0 0 0 0 0 0 0 0 0 0.25 0"/>
<feBlend mode="normal" in2="BackgroundImageFix" result="effect1_dropShadow_1_52"/>
<feBlend mode="normal" in="SourceGraphic" in2="effect1_dropShadow_1_52" result="shape"/>
</filter>
<filter id="filter2_d_1_52" x="52.0959" y="44.5" width="23.0985" height="27.8807" filterUnits="userSpaceOnUse" color-interpolation-filters="sRGB">
<feFlood flood-opacity="0" result="BackgroundImageFix"/>
<feColorMatrix in="SourceAlpha" type="matrix" values="0 0 0 0 0 0 0 0 0 0 0 0 0 0 0 0 0 0 127 0" result="hardAlpha"/>
<feOffset dy="4"/>
<feGaussianBlur stdDeviation="2"/>
<feComposite in2="hardAlpha" operator="out"/>
<feColorMatrix type="matrix" values="0 0 0 0 0 0 0 0 0 0 0 0 0 0 0 0 0 0 0.25 0"/>
<feBlend mode="normal" in2="BackgroundImageFix" result="effect1_dropShadow_1_52"/>
<feBlend mode="normal" in="SourceGraphic" in2="effect1_dropShadow_1_52" result="shape"/>
</filter>
<filter id="filter3_d_1_52" x="51.9759" y="16.0594" width="23.1522" height="29.6296" filterUnits="userSpaceOnUse" color-interpolation-filters="sRGB">
<feFlood flood-opacity="0" result="BackgroundImageFix"/>
<feColorMatrix in="SourceAlpha" type="matrix" values="0 0 0 0 0 0 0 0 0 0 0 0 0 0 0 0 0 0 127 0" result="hardAlpha"/>
<feOffset dy="4"/>
<feGaussianBlur stdDeviation="2"/>
<feComposite in2="hardAlpha" operator="out"/>
<feColorMatrix type="matrix" values="0 0 0 0 0 0 0 0 0 0 0 0 0 0 0 0 0 0 0.25 0"/>
<feBlend mode="normal" in2="BackgroundImageFix" result="effect1_dropShadow_1_52"/>
<feBlend mode="normal" in="SourceGraphic" in2="effect1_dropShadow_1_52" result="shape"/>
</filter>
</defs>
</svg>
